<svg width="243" height="56" viewBox="0 0 243 56" fill="none" xmlns="http://www.w3.org/2000/svg">
<path d="M8.39106 17.1819H0V25.7242H8.39106V17.1819Z" fill="#FF3495"/>
<path d="M32.6528 40.4577H55.4484V49H32.6528V40.4577ZM42.9279 20.9611C45.514 20.9611 47.6089 23.0938 47.6089 25.7266C47.6089 28.3593 45.514 30.492 42.9279 30.492H32.6528V39.0343H42.9279C48.4868 39.0343 53.2473 35.4838 55.1329 30.492C55.6936 29.0111 56 27.405 56 25.7266C56 18.389 50.1363 12.4188 42.9279 12.4188C35.7195 12.4188 29.8558 18.3882 29.8558 25.7266H38.2468C38.2468 23.0938 40.3417 20.9611 42.9279 20.9611Z" fill="white"/>
<path d="M18.1825 40.4577H31.2547V49H22.8636C15.6445 49 9.79148 43.0414 9.79148 35.6922V7H18.1825V17.1842H27.9725V25.7266H18.1825V40.4577Z" fill="white"/>
<path d="M96 19L78 37" stroke="white" stroke-width="2" stroke-linecap="round" stroke-linejoin="round"/>
<path d="M78 19L96 37" stroke="white" stroke-width="2" stroke-linecap="round" stroke-linejoin="round"/>
<path d="M161.103 29.5228L165.379 16.0035L167.322 16.0023L171.635 29.5236L161.103 29.5173L161.103 29.5228ZM150.617 44.3166L156.395 44.3171L159.485 34.5966L173.287 34.6037L176.407 44.3208L182.337 44.3249L171.066 10.4521L161.866 10.4473L150.616 44.311L150.617 44.3166Z" fill="#EE242D"/>
<path fill-rule="evenodd" clip-rule="evenodd" d="M124.557 44.3079L118 44.3024L118.012 10.4377L128.813 10.4431L134.325 24.028L135.551 24.0276L141.031 10.4482L161.871 10.4469L150.616 44.3166L145.308 44.3143L145.317 19.0334L144.091 19.0338L138.432 32.612L131.4 32.6143L125.787 19.027L124.566 19.027L124.557 44.3079ZM187.655 44.3264L182.342 44.3246L171.065 10.4522L191.906 10.4676L197.423 24.052L198.65 24.0516L204.124 10.4672L214.97 10.4742L214.97 10.4797L219.209 10.48L224.72 24.0649L225.952 24.064L231.427 10.4851L242.273 10.4922L242.26 44.3512L235.703 44.3457L235.713 19.0648L234.486 19.0652L228.828 32.649L221.8 32.6452L216.193 19.0574L214.962 19.0584L214.952 44.3393L208.401 44.3389L208.411 19.0579L207.184 19.0584L201.52 32.637L194.492 32.6333L188.891 19.0506L187.665 19.051L187.655 44.3264Z" fill="white"/>
<path d="M156.395 44.3172L176.413 44.3259L173.293 34.6032L159.485 34.5967L156.395 44.3172Z" fill="white"/>
<path d="M161.103 29.5229L171.635 29.5293L167.322 16.0079L165.374 16.0097L161.103 29.5229Z" fill="white"/>
</svg>
