<svg width="139" height="20" viewBox="0 0 139 20" fill="none" xmlns="http://www.w3.org/2000/svg">
<path fill-rule="evenodd" clip-rule="evenodd" d="M38.553 1.74223C40.2198 1.50393 41.7439 1.90467 42.7825 2.88151C43.7325 3.77502 44.2117 5.04052 44.0972 6.35374C43.8805 8.83593 42.6697 10.8247 39.2985 14.1014L33.7813 14.2816C33.7813 14.2816 37.6244 10.8089 39.0699 9.11216C40.0065 8.01268 40.4032 6.82584 40.0185 6.03476C39.7748 5.53345 39.2274 5.28395 38.553 5.32126V1.74223ZM27.2475 3.71029V6.93707L32.0394 6.41275V3.04031L27.2475 3.71029ZM23.3448 18.2846V4.25596L26.633 3.79615V18.2846H23.3448ZM10.3559 6.07615V8.78872L13.9779 8.39248V5.56986L10.3559 6.07615ZM7.38019 18.2846V6.49231L9.8885 6.14162V18.2846H7.38019ZM0 7.52411V9.92204L6.50212 9.2104V6.6152L0 7.52411ZM2.07471 10.0678V18.2846H4.45537V9.82606L2.07471 10.0678ZM10.3559 13.5702V10.8077L12.7337 10.6044V13.441L10.3559 13.5702ZM10.3559 15.5608V18.2845H13.9779V15.4521L10.3559 15.5608ZM27.2475 12.6508V9.36418L30.3884 9.09634V12.4801L27.2475 12.6508ZM27.2472 15.053V18.2846H32.0392V14.9092L27.2472 15.053ZM14.9361 18.2846V5.43575L17.7933 5.03625V18.2846H14.9361ZM18.3266 15.3216V18.2846H22.4743V15.1971L18.3266 15.3216ZM44.292 18.2846V14.5393L33.1007 14.8163V18.2846H44.292ZM33.2465 8.77341C33.0623 4.89079 34.6587 2.51104 37.9097 1.82257L37.9118 5.46766C37.2294 5.75368 36.555 6.27397 36.713 8.46749L33.2465 8.77341Z" fill="#1F2229"/>
<mask id="mask0_1362_8040" style="mask-type:luminance" maskUnits="userSpaceOnUse" x="0" y="1" width="45" height="18">
<path fill-rule="evenodd" clip-rule="evenodd" d="M38.553 1.74223C40.2198 1.50393 41.7439 1.90467 42.7825 2.88151C43.7325 3.77502 44.2117 5.04052 44.0972 6.35374C43.8805 8.83593 42.6697 10.8247 39.2985 14.1014L33.7813 14.2816C33.7813 14.2816 37.6244 10.8089 39.0699 9.11216C40.0065 8.01268 40.4032 6.82584 40.0185 6.03476C39.7748 5.53345 39.2274 5.28395 38.553 5.32126V1.74223ZM27.2475 3.71029V6.93707L32.0394 6.41275V3.04031L27.2475 3.71029ZM23.3448 18.2846V4.25596L26.633 3.79615V18.2846H23.3448ZM10.3559 6.07615V8.78872L13.9779 8.39248V5.56986L10.3559 6.07615ZM7.38019 18.2846V6.49231L9.8885 6.14162V18.2846H7.38019ZM0 7.52411V9.92204L6.50212 9.2104V6.6152L0 7.52411ZM2.07471 10.0678V18.2846H4.45537V9.82606L2.07471 10.0678ZM10.3559 13.5702V10.8077L12.7337 10.6044V13.441L10.3559 13.5702ZM10.3559 15.5608V18.2845H13.9779V15.4521L10.3559 15.5608ZM27.2475 12.6508V9.36418L30.3884 9.09634V12.4801L27.2475 12.6508ZM27.2472 15.053V18.2846H32.0392V14.9092L27.2472 15.053ZM14.9361 18.2846V5.43575L17.7933 5.03625V18.2846H14.9361ZM18.3266 15.3216V18.2846H22.4743V15.1971L18.3266 15.3216ZM44.292 18.2846V14.5393L33.1007 14.8163V18.2846H44.292ZM33.2465 8.77341C33.0623 4.89079 34.6587 2.51104 37.9097 1.82257L37.9118 5.46766C37.2294 5.75368 36.555 6.27397 36.713 8.46749L33.2465 8.77341Z" fill="white"/>
</mask>
<g mask="url(#mask0_1362_8040)">
</g>
<path d="M64.8751 5.44983L55.8154 14.5095" stroke="#1F2229" stroke-width="1.00664" stroke-linecap="round" stroke-linejoin="round"/>
<path d="M55.8138 5.44983L64.8735 14.5095" stroke="#1F2229" stroke-width="1.00664" stroke-linecap="round" stroke-linejoin="round"/>
<path d="M98.0919 10.7463L100.244 3.94185L101.222 3.94121L103.393 10.7467L98.0917 10.7435L98.0919 10.7463ZM92.814 18.1923L95.7224 18.1926L97.2773 13.3001L104.224 13.3036L105.795 18.1944L108.779 18.1965L103.106 1.14773L98.4758 1.14529L92.8138 18.1895L92.814 18.1923Z" fill="#EE242D"/>
<path fill-rule="evenodd" clip-rule="evenodd" d="M79.6982 18.1877L76.3979 18.1849L76.4039 1.14026L81.8404 1.14294L84.6144 7.98047L85.2316 7.98025L87.9898 1.14551L98.4789 1.14485L92.8143 18.1921L90.1426 18.1909L90.1473 5.4666L89.5301 5.46682L86.6817 12.301L83.1422 12.3021L80.3173 5.46338L79.7029 5.46336L79.6982 18.1877ZM111.457 18.197L108.782 18.1961L103.106 1.14757L113.596 1.1553L116.373 7.99258L116.99 7.99236L119.745 1.15507L125.205 1.1586L125.205 1.1614L127.338 1.16155L130.112 7.99908L130.732 7.99862L133.488 1.16412L138.947 1.16765L138.94 18.2095L135.64 18.2068L135.645 5.48241L135.028 5.48263L132.179 12.3196L128.643 12.3177L125.82 5.47871L125.2 5.47917L125.196 18.2035L121.899 18.2033L121.903 5.47896L121.286 5.47918L118.435 12.3136L114.898 12.3117L112.079 5.47526L111.462 5.47547L111.457 18.197Z" fill="#1F2229"/>
<path d="M95.7223 18.1924L105.798 18.1968L104.227 13.3032L97.2773 13.2999L95.7223 18.1924Z" fill="#1F2229"/>
<path d="M98.0928 10.7461L103.394 10.7493L101.223 3.94381L100.242 3.94469L98.0928 10.7461Z" fill="#1F2229"/>
</svg>
