<svg width="125" height="39" viewBox="0 0 125 39" fill="none" xmlns="http://www.w3.org/2000/svg">
<path d="M43.1027 20.5902L47.3786 7.07093L49.3214 7.06966L53.6348 20.591L43.1022 20.5846L43.1027 20.5902ZM32.6165 35.384L38.3948 35.3845L41.4842 25.664L55.2867 25.6711L58.4065 35.3882L64.3363 35.3923L53.0652 1.51952L43.8654 1.51467L32.616 35.3784L32.6165 35.384Z" fill="#EE242D"/>
<path fill-rule="evenodd" clip-rule="evenodd" d="M6.55708 35.3753L0 35.3698L0.0118865 1.50513L10.8131 1.51045L16.3247 15.0954L17.5508 15.0949L23.0309 1.51556L43.8708 1.51425L32.6162 35.384L27.3081 35.3817L27.3174 10.1008L26.0912 10.1012L20.4319 23.6794L13.3996 23.6817L7.78705 10.0944L6.56643 10.0943L6.55708 35.3753ZM69.6553 35.3938L64.3416 35.3919L53.0649 1.51963L73.9063 1.53499L79.4234 15.1194L80.6496 15.119L86.1236 1.53454L96.9697 1.54155L96.9702 1.54711L101.209 1.54742L106.72 15.1323L107.952 15.1314L113.427 1.55252L124.273 1.55953L124.26 35.4186L117.703 35.4131L117.713 10.1322L116.486 10.1326L110.828 23.7164L103.8 23.7126L98.1934 10.1248L96.9616 10.1257L96.9523 35.4067L90.4012 35.4063L90.4106 10.1253L89.1844 10.1257L83.5195 23.7044L76.4923 23.7007L70.8913 10.118L69.6652 10.1184L69.6553 35.3938Z" fill="#fff"/>
<path d="M38.3948 35.3846L58.4125 35.3933L55.2922 25.6706L41.4842 25.6641L38.3948 35.3846Z" fill="#fff"/>
<path d="M43.1025 20.5903L53.635 20.5966L49.3216 7.07533L47.3732 7.07708L43.1025 20.5903Z" fill="#fff"/>
</svg>
