<svg width="139" height="20" fill="none" xmlns="http://www.w3.org/2000/svg"><path fill-rule="evenodd" clip-rule="evenodd" d="M38.553 1.742c1.667-.238 3.19.163 4.23 1.14a4.23 4.23 0 0 1 1.314 3.472c-.217 2.482-1.427 4.47-4.799 7.747l-5.517.18s3.843-3.472 5.289-5.169c.937-1.1 1.333-2.286.949-3.077-.244-.502-.792-.751-1.466-.714V1.742ZM27.248 3.71v3.227l4.791-.524V3.04l-4.792.67Zm-3.903 14.575V4.256l3.288-.46v14.489h-3.288ZM10.355 6.076V8.79l3.623-.397V5.57l-3.622.506ZM7.38 18.285V6.492l2.509-.35v12.143H7.38ZM0 7.525v2.397l6.502-.712V6.615L0 7.525Zm2.075 2.543v8.217h2.38V9.826l-2.38.242Zm8.28 3.502v-2.762l2.379-.204v2.837l-2.378.13Zm0 1.99v2.725h3.623v-2.833l-3.622.109Zm16.892-2.91V9.365l3.141-.268v3.384l-3.14.17Zm0 2.403v3.232h4.792v-3.376l-4.792.144Zm-12.31 3.232V5.435l2.856-.399v13.249h-2.857Zm3.39-2.963v2.963h4.147v-3.088l-4.147.125Zm25.965 2.963v-3.746l-11.191.277v3.469h11.191ZM33.246 8.773c-.184-3.882 1.413-6.262 4.664-6.95l.002 3.645c-.683.286-1.357.806-1.199 3l-3.467.305Z" fill="#1F2229"/><mask id="mask0_1362_8040" style="mask-type:luminance" maskUnits="userSpaceOnUse" x="0" y="1" width="45" height="18"><path fill-rule="evenodd" clip-rule="evenodd" d="M38.553 1.742c1.667-.238 3.19.163 4.23 1.14a4.23 4.23 0 0 1 1.314 3.472c-.217 2.482-1.427 4.47-4.799 7.747l-5.517.18s3.843-3.472 5.289-5.169c.937-1.1 1.333-2.286.949-3.077-.244-.502-.792-.751-1.466-.714V1.742ZM27.248 3.71v3.227l4.791-.524V3.04l-4.792.67Zm-3.903 14.575V4.256l3.288-.46v14.489h-3.288ZM10.355 6.076V8.79l3.623-.397V5.57l-3.622.506ZM7.38 18.285V6.492l2.509-.35v12.143H7.38ZM0 7.525v2.397l6.502-.712V6.615L0 7.525Zm2.075 2.543v8.217h2.38V9.826l-2.38.242Zm8.28 3.502v-2.762l2.379-.204v2.837l-2.378.13Zm0 1.99v2.725h3.623v-2.833l-3.622.109Zm16.892-2.91V9.365l3.141-.268v3.384l-3.14.17Zm0 2.403v3.232h4.792v-3.376l-4.792.144Zm-12.31 3.232V5.435l2.856-.399v13.249h-2.857Zm3.39-2.963v2.963h4.147v-3.088l-4.147.125Zm25.965 2.963v-3.746l-11.191.277v3.469h11.191ZM33.246 8.773c-.184-3.882 1.413-6.262 4.664-6.95l.002 3.645c-.683.286-1.357.806-1.199 3l-3.467.305Z" fill="#fff"/></mask><path d="m64.875 5.45-9.06 9.06M55.814 5.45l9.06 9.06" stroke="#1F2229" stroke-width="1.007" stroke-linecap="round" stroke-linejoin="round"/><path d="m98.092 10.746 2.152-6.804h.978l2.171 6.805-5.301-.004v.003Zm-5.278 7.446h2.908l1.555-4.892 6.947.004 1.571 4.89 2.984.003-5.673-17.05-4.63-.002-5.662 17.044v.003Z" fill="#EE242D"/><path fill-rule="evenodd" clip-rule="evenodd" d="m79.698 18.188-3.3-.003.006-17.045 5.436.003 2.774 6.837h.618l2.758-6.834 10.489-.001-5.665 17.047-2.671-.001.004-12.724h-.617L86.682 12.3l-3.54.001-2.825-6.839h-.614l-.005 12.725Zm31.759.009h-2.675l-5.676-17.05 10.49.008 2.777 6.838h.617l2.755-6.838 5.46.004v.002h2.133L130.112 8h.62l2.756-6.835 5.459.004-.007 17.041-3.3-.002.005-12.725h-.617l-2.849 6.838-3.536-.002-2.823-6.84-.62.001-.004 12.724h-3.297l.004-12.724h-.617l-2.851 6.835-3.537-.002-2.819-6.837h-.617l-.005 12.722Z" fill="#1F2229"/><path d="m95.722 18.192 10.076.005-1.571-4.894-6.95-.003-1.555 4.892ZM98.093 10.746l5.301.003-2.171-6.805h-.981l-2.15 6.802Z" fill="#1F2229"/></svg>