<svg width="243" height="56" fill="none" xmlns="http://www.w3.org/2000/svg"><path d="M8.391 17.182H0v8.542h8.391v-8.542Z" fill="#FF3495"/><path d="M32.653 40.458h22.795V49H32.653v-8.542ZM42.928 20.96c2.586 0 4.68 2.133 4.68 4.766 0 2.632-2.094 4.765-4.68 4.765H32.653v8.542h10.275c5.559 0 10.32-3.55 12.205-8.542.56-1.48.867-3.087.867-4.765 0-7.338-5.864-13.308-13.072-13.308-7.209 0-13.072 5.97-13.072 13.308h8.39c0-2.633 2.096-4.766 4.682-4.766ZM18.183 40.458h13.072V49h-8.391C15.644 49 9.79 43.041 9.79 35.692V7h8.392v10.184h9.79v8.543h-9.79v14.73Z" fill="#fff"/><path d="M96 19 78 37M78 19l18 18" stroke="#fff" stroke-width="2" stroke-linecap="round" stroke-linejoin="round"/><path d="m161.103 29.523 4.276-13.52h1.943l4.313 13.52-10.532-.006v.006Zm-10.486 14.794h5.778l3.09-9.72 13.802.007 3.12 9.717 5.93.004-11.271-33.873-9.2-.005-11.25 33.864.001.006Z" fill="#EE242D"/><path fill-rule="evenodd" clip-rule="evenodd" d="M124.557 44.308 118 44.302l.012-33.864 10.801.005 5.512 13.585h1.226l5.48-13.58 20.84-.001-11.255 33.87-5.308-.003.009-25.28h-1.226l-5.659 13.578-7.032.002-5.613-13.587h-1.221l-.009 25.28Zm63.098.018-5.313-.001-11.277-33.873 20.841.016 5.517 13.584h1.227l5.474-13.585 10.846.007v.006h4.239l5.511 13.585 1.232-.001 5.475-13.579 10.846.007-.013 33.86-6.557-.006.01-25.281h-1.227l-5.658 13.584-7.028-.004-5.607-13.588-1.231.001-.01 25.281h-6.551l.01-25.281h-1.227l-5.664 13.579-7.028-.004-5.601-13.582h-1.226l-.01 25.275Z" fill="#fff"/><path d="m156.395 44.317 20.018.009-3.12-9.723-13.808-.006-3.09 9.72ZM161.103 29.523l10.532.006-4.313-13.521-1.948.002-4.271 13.513Z" fill="#fff"/></svg>